<svg width="180" height="31" viewBox="0 0 180 31" fill="none" xmlns="http://www.w3.org/2000/svg">
<path d="M15.6719 14.2197C14.6549 13.7159 13.5581 14.4437 13.8225 15.4455L17.4253 29.0989C17.7265 30.2403 19.4155 30.5359 19.9441 29.5391L22.4555 24.8054C22.5482 24.6309 22.6855 24.4817 22.8571 24.369C23.0286 24.2563 23.23 24.1831 23.4461 24.1547L29.389 23.3708C30.6275 23.2074 30.7832 21.685 29.6193 21.1109L15.6717 14.2189L15.6719 14.2197Z" fill="#CB5FFE"/>
<rect width="8.86441" height="8.86441" rx="0.886441" fill="#E8B8FF"/>
<rect y="12.7934" width="8.86441" height="8.86441" rx="0.886441" fill="#E8B8FF"/>
<rect x="12.3106" width="8.86441" height="8.86441" rx="0.886441" fill="#E8B8FF"/>
<path d="M49.3656 15.7371V13.2692H52.5355C53.2021 13.2692 53.7127 13.0991 54.0673 12.7587C54.436 12.4183 54.6204 11.9573 54.6204 11.3758C54.6204 10.8369 54.4431 10.3901 54.0886 10.0355C53.734 9.68093 53.2234 9.50365 52.5568 9.50365H49.3656V6.90815H52.9397C53.9325 6.90815 54.8048 7.09962 55.5565 7.48256C56.3082 7.85132 56.8968 8.369 57.3223 9.03561C57.7478 9.70221 57.9605 10.4681 57.9605 11.3333C57.9605 12.2126 57.7478 12.9856 57.3223 13.6522C56.8968 14.3046 56.3011 14.8152 55.5352 15.184C54.7693 15.5527 53.8687 15.7371 52.8333 15.7371H49.3656ZM46.8126 21.928V6.90815H50.1528V21.928H46.8126ZM54.9821 21.928L50.3017 15.4605L53.3652 14.6308L58.9392 21.928H54.9821ZM64.9381 22.162C63.8176 22.162 62.8177 21.9351 61.9384 21.4812C61.0732 21.0132 60.3924 20.3679 59.896 19.5453C59.3996 18.7226 59.1514 17.7936 59.1514 16.7583C59.1514 15.7229 59.3925 14.801 59.8747 13.9926C60.3711 13.17 61.0378 12.5246 61.8746 12.0566C62.7114 11.5886 63.6545 11.3545 64.7041 11.3545C65.7253 11.3545 66.6259 11.5744 67.4059 12.014C68.186 12.4537 68.7959 13.0636 69.2356 13.8437C69.6894 14.6237 69.9163 15.5173 69.9163 16.5243C69.9163 16.7086 69.9022 16.9072 69.8738 17.12C69.8596 17.3185 69.8242 17.5525 69.7674 17.822L60.8534 17.8433V15.6095L68.3846 15.5882L66.9805 16.5243C66.9663 15.9286 66.8741 15.4393 66.7039 15.0563C66.5337 14.6592 66.2784 14.3613 65.938 14.1628C65.6118 13.95 65.2076 13.8437 64.7253 13.8437C64.2148 13.8437 63.768 13.9642 63.385 14.2053C63.0163 14.4323 62.7255 14.7585 62.5128 15.184C62.3142 15.6095 62.2149 16.1271 62.2149 16.737C62.2149 17.3469 62.3213 17.8717 62.5341 18.3113C62.761 18.7368 63.073 19.0701 63.4701 19.3112C63.8815 19.5382 64.3637 19.6516 64.9168 19.6516C65.4274 19.6516 65.8884 19.5665 66.2997 19.3963C66.711 19.212 67.0726 18.9425 67.3847 18.5879L69.1717 20.375C68.6611 20.9707 68.0442 21.4174 67.3208 21.7153C66.5975 22.0131 65.8033 22.162 64.9381 22.162ZM76.487 22.162C75.4233 22.162 74.4589 21.928 73.5937 21.46C72.7285 20.9919 72.0477 20.3466 71.5513 19.524C71.0549 18.7014 70.8067 17.7795 70.8067 16.7583C70.8067 15.7229 71.0549 14.801 71.5513 13.9926C72.0619 13.17 72.7498 12.5246 73.615 12.0566C74.4801 11.5886 75.4517 11.3545 76.5296 11.3545C77.338 11.3545 78.0755 11.4964 78.7421 11.78C79.4229 12.0495 80.0257 12.4608 80.5505 13.014L78.4656 15.0989C78.2245 14.8294 77.9408 14.6308 77.6146 14.5032C77.3026 14.3755 76.9409 14.3117 76.5296 14.3117C76.0615 14.3117 75.6431 14.4181 75.2744 14.6308C74.9198 14.8294 74.6362 15.113 74.4234 15.4818C74.2248 15.8364 74.1256 16.2548 74.1256 16.737C74.1256 17.2192 74.2248 17.6447 74.4234 18.0135C74.6362 18.3822 74.9269 18.673 75.2957 18.8857C75.6644 19.0985 76.0757 19.2049 76.5296 19.2049C76.9551 19.2049 77.3309 19.1339 77.6571 18.9921C77.9975 18.8361 78.2883 18.6234 78.5294 18.3539L80.593 20.4388C80.0541 21.0061 79.4442 21.4387 78.7634 21.7365C78.0826 22.0202 77.3238 22.162 76.487 22.162ZM82.0417 21.928V11.5886H85.2967V21.928H82.0417ZM85.2967 16.2477L83.9351 15.184C84.2046 13.9784 84.6585 13.0423 85.2967 12.3757C85.935 11.7091 86.8214 11.3758 87.956 11.3758C88.4524 11.3758 88.885 11.4538 89.2538 11.6098C89.6367 11.7517 89.97 11.9786 90.2537 12.2906L88.3177 14.7372C88.1759 14.5812 87.9986 14.4606 87.7858 14.3755C87.5731 14.2904 87.332 14.2479 87.0625 14.2479C86.5236 14.2479 86.091 14.4181 85.7648 14.7585C85.4527 15.0847 85.2967 15.5811 85.2967 16.2477ZM95.7161 22.162C94.7658 22.162 93.922 21.9706 93.1844 21.5876C92.4611 21.1905 91.8938 20.6515 91.4825 19.9707C91.0712 19.2758 90.8655 18.4815 90.8655 17.588V11.5886H94.1205V17.5454C94.1205 17.9 94.1773 18.205 94.2907 18.4603C94.4184 18.7155 94.6027 18.9141 94.8439 19.0559C95.085 19.1978 95.3757 19.2687 95.7161 19.2687C96.1983 19.2687 96.5813 19.1198 96.8649 18.8219C97.1486 18.5099 97.2904 18.0844 97.2904 17.5454V11.5886H100.545V17.5667C100.545 18.4744 100.34 19.2758 99.9285 19.9707C99.5172 20.6515 98.9499 21.1905 98.2265 21.5876C97.5032 21.9706 96.6664 22.162 95.7161 22.162ZM102.589 21.928V11.5886H105.844V21.928H102.589ZM104.227 10.1632C103.717 10.1632 103.291 9.99296 102.951 9.65257C102.625 9.29799 102.461 8.8725 102.461 8.37609C102.461 7.8655 102.625 7.44001 102.951 7.09962C103.291 6.75922 103.717 6.58903 104.227 6.58903C104.738 6.58903 105.156 6.75922 105.482 7.09962C105.809 7.44001 105.972 7.8655 105.972 8.37609C105.972 8.8725 105.809 9.29799 105.482 9.65257C105.156 9.99296 104.738 10.1632 104.227 10.1632ZM109.604 21.928V7.31236H112.859V21.928H109.604ZM107.264 14.3543V11.5886H115.199V14.3543H107.264ZM121.25 22.1408C120.073 22.1408 119.073 21.928 118.251 21.5025C117.428 21.077 116.69 20.453 116.038 19.6304L117.697 17.9709C118.109 18.5666 118.598 19.0347 119.165 19.3751C119.733 19.7013 120.456 19.8644 121.335 19.8644C122.158 19.8644 122.81 19.6942 123.293 19.3538C123.789 19.0134 124.037 18.5453 124.037 17.9497C124.037 17.4533 123.91 17.049 123.654 16.737C123.399 16.425 123.059 16.1697 122.633 15.9711C122.222 15.7584 121.761 15.574 121.25 15.418C120.754 15.2478 120.25 15.0634 119.74 14.8648C119.243 14.6521 118.782 14.3897 118.357 14.0777C117.946 13.7657 117.612 13.3614 117.357 12.865C117.102 12.3686 116.974 11.7375 116.974 10.9716C116.974 10.0922 117.187 9.34763 117.612 8.73776C118.052 8.11371 118.641 7.63857 119.378 7.31236C120.116 6.98615 120.938 6.82305 121.846 6.82305C122.825 6.82305 123.697 7.01452 124.463 7.39746C125.243 7.7804 125.874 8.26972 126.356 8.86541L124.697 10.5248C124.271 10.0426 123.825 9.68803 123.356 9.4611C122.903 9.21998 122.378 9.09943 121.782 9.09943C121.045 9.09943 120.463 9.24835 120.038 9.5462C119.626 9.84404 119.421 10.2624 119.421 10.8014C119.421 11.2553 119.548 11.624 119.804 11.9077C120.059 12.1772 120.392 12.4112 120.804 12.6097C121.229 12.7941 121.69 12.9714 122.186 13.1416C122.697 13.3118 123.2 13.5033 123.697 13.716C124.207 13.9288 124.668 14.2053 125.08 14.5457C125.505 14.8719 125.846 15.2974 126.101 15.8222C126.356 16.347 126.484 17.0065 126.484 17.8007C126.484 19.1339 126.009 20.1906 125.058 20.9707C124.122 21.7507 122.853 22.1408 121.25 22.1408ZM128.625 21.928V11.7162H130.966V21.928H128.625ZM129.796 9.84404C129.398 9.84404 129.065 9.7093 128.796 9.43982C128.54 9.17034 128.413 8.83704 128.413 8.43992C128.413 8.04279 128.54 7.70949 128.796 7.44001C129.065 7.17053 129.398 7.03579 129.796 7.03579C130.207 7.03579 130.54 7.17053 130.795 7.44001C131.051 7.70949 131.178 8.04279 131.178 8.43992C131.178 8.83704 131.051 9.17034 130.795 9.43982C130.54 9.7093 130.207 9.84404 129.796 9.84404ZM133.59 21.928V11.7162H135.931V21.928H133.59ZM140.377 21.928V15.8435C140.377 15.1627 140.164 14.6379 139.739 14.2692C139.313 13.8862 138.788 13.6947 138.164 13.6947C137.739 13.6947 137.356 13.7798 137.016 13.95C136.689 14.1202 136.427 14.3684 136.228 14.6946C136.03 15.0067 135.931 15.3896 135.931 15.8435L135.016 15.3329C135.016 14.5528 135.186 13.8791 135.526 13.3118C135.867 12.7445 136.328 12.3048 136.909 11.9928C137.491 11.6666 138.143 11.5035 138.866 11.5035C139.59 11.5035 140.242 11.6595 140.824 11.9715C141.405 12.2835 141.866 12.7232 142.207 13.2905C142.547 13.8578 142.717 14.5386 142.717 15.3329V21.928H140.377ZM147.164 21.928V15.8435C147.164 15.1627 146.951 14.6379 146.525 14.2692C146.1 13.8862 145.575 13.6947 144.951 13.6947C144.54 13.6947 144.164 13.7798 143.823 13.95C143.483 14.1202 143.214 14.3684 143.015 14.6946C142.816 15.0067 142.717 15.3896 142.717 15.8435L141.398 15.3329C141.469 14.5528 141.696 13.8791 142.079 13.3118C142.462 12.7445 142.951 12.3048 143.547 11.9928C144.157 11.6666 144.823 11.5035 145.547 11.5035C146.284 11.5035 146.951 11.6595 147.547 11.9715C148.142 12.2835 148.617 12.7232 148.972 13.2905C149.326 13.8578 149.504 14.5386 149.504 15.3329V21.928H147.164ZM157.382 22.1408C156.602 22.1408 155.907 21.9776 155.297 21.6514C154.688 21.311 154.205 20.8501 153.851 20.2686C153.51 19.6871 153.34 19.0276 153.34 18.2901V15.3542C153.34 14.6166 153.517 13.9571 153.872 13.3756C154.227 12.7941 154.709 12.3403 155.319 12.014C155.929 11.6737 156.616 11.5035 157.382 11.5035C158.304 11.5035 159.134 11.7446 159.871 12.2268C160.623 12.6948 161.212 13.3331 161.637 14.1415C162.077 14.9358 162.297 15.8364 162.297 16.8434C162.297 17.8362 162.077 18.7368 161.637 19.5453C161.212 20.3395 160.623 20.9707 159.871 21.4387C159.134 21.9067 158.304 22.1408 157.382 22.1408ZM156.999 19.9282C157.567 19.9282 158.063 19.8005 158.489 19.5453C158.928 19.2758 159.269 18.907 159.51 18.439C159.765 17.9709 159.893 17.432 159.893 16.8221C159.893 16.2122 159.765 15.6733 159.51 15.2052C159.269 14.7372 158.928 14.3755 158.489 14.1202C158.063 13.8508 157.567 13.716 156.999 13.716C156.432 13.716 155.929 13.8508 155.489 14.1202C155.049 14.3755 154.709 14.7372 154.468 15.2052C154.227 15.6733 154.106 16.2122 154.106 16.8221C154.106 17.432 154.227 17.9709 154.468 18.439C154.709 18.907 155.049 19.2758 155.489 19.5453C155.929 19.8005 156.432 19.9282 156.999 19.9282ZM151.915 26.1829V11.7162H154.255V14.4606L153.851 16.9498L154.255 19.4176V26.1829H151.915ZM164.256 21.928V6.6103H166.596V21.928H164.256ZM172.498 22.0344L168.137 11.7162H170.711L173.689 19.29H172.945L176.093 11.7162H178.689L173.945 22.0344H172.498ZM169.456 26.1829L172.626 19.6516L173.945 22.0344L172.051 26.1829H169.456Z" fill="white"/>
</svg>
